<svg width="26" height="26" viewBox="0 0 26 26" fill="none" xmlns="http://www.w3.org/2000/svg">
<path fill-rule="evenodd" clip-rule="evenodd" d="M11.7384 3.68383C12.6848 3.10539 13.8993 3.10539 14.8457 3.68383L15.9496 4.3585C17.4971 5.30435 19.2606 5.51547 21.0316 5.72753C21.6042 5.7961 22.1775 5.86473 22.7446 5.95833C22.7446 5.95833 22.7571 6.95148 22.7439 7.40236L22.6308 11.2759C22.5337 14.5978 21.0564 17.7479 18.5223 20.0368C17.3268 21.1166 16.0904 22.0919 14.6696 22.9024C13.8273 23.3829 12.7852 23.421 11.9066 23.0033C10.2662 22.2235 8.81342 21.2346 7.48725 20.0368C4.95308 17.7479 3.47581 14.5978 3.37876 11.2759L3.26595 7.41471C3.25259 6.95744 3.26595 5.95833 3.26595 5.95833C3.72635 5.90395 4.19562 5.85937 4.66843 5.81447C6.75573 5.61611 8.91222 5.41117 10.6814 4.32991L11.7384 3.68383ZM11.9165 11.9167V8.125H14.0832V11.9167H17.8749V14.0833H14.0832V17.875H11.9165V14.0833H8.12485V11.9167H11.9165Z" fill="white"/>
</svg>
