<svg width="26" height="26" viewBox="0 0 26 26" fill="none" xmlns="http://www.w3.org/2000/svg">
<path d="M4.875 10.3104C4.875 7.20911 6.93967 4.33334 9.7669 4.33334C11.7289 4.33334 13.1847 5.62359 14.0833 7.45394C14.9819 5.6237 16.4377 4.33334 18.3998 4.33334C21.2273 4.33334 23.2917 7.20959 23.2917 10.3104C23.2917 16.9481 14.0833 21.6667 14.0833 21.6667C14.0833 21.6667 7.88055 18.6806 5.65668 13.7824H11.1501L12.0233 12.2302L13.0432 15.8L15.4316 12.7292H18.4167V11.6458H14.9017L13.4985 13.45L12.3517 9.43649L10.5166 12.6991H5.24325C5.35807 13.0698 5.49716 13.431 5.65668 13.7824L3.25 13.7823V12.699L5.24325 12.6991C5.00848 11.9412 4.875 11.1438 4.875 10.3104Z" fill="white"/>
</svg>
