<svg width="20" height="20" viewBox="0 0 20 20" fill="none" xmlns="http://www.w3.org/2000/svg">
<path fill-rule="evenodd" clip-rule="evenodd" d="M11.3428 4.54364L12.7678 5.94697L6.44969 12.3627C6.13265 12.6862 6.13265 13.207 6.44969 13.5306C6.75053 13.8377 7.2531 13.8363 7.55073 13.5289L14.5021 6.46736C15.5169 5.43174 15.5169 3.76854 14.5021 2.73292C13.5338 1.74483 11.8207 1.76681 10.8718 2.7348L3.28451 10.4369C1.57152 12.1843 1.57152 14.9902 3.28451 16.7377C4.94791 18.4345 7.80538 18.4068 9.4428 16.7361L18.2917 7.74893L19.7169 9.15213L10.8695 18.1376C8.45566 20.6007 4.31005 20.6408 1.85632 18.1377C-0.619056 15.6126 -0.619056 11.5619 1.85802 9.0351L9.44525 1.333C11.1687 -0.425054 14.17 -0.463559 15.9306 1.33315C17.7074 3.1464 17.7074 6.05389 15.929 7.86877L8.98179 14.926C7.90713 16.036 6.10929 16.041 5.02109 14.9303C3.94221 13.8291 3.94221 12.0642 5.02289 10.9612L11.3428 4.54364Z" fill="#C7C7CC"/>
</svg>
