<svg width="24" height="33" viewBox="0 0 24 33" fill="none" xmlns="http://www.w3.org/2000/svg">
<path fill-rule="evenodd" clip-rule="evenodd" d="M11.8644 0C5.30508 0 0 5.30508 0 11.8644C0 18.9322 7.49152 28.678 10.5763 32.3898C11.2542 33.2034 12.4915 33.2034 13.1695 32.3898C16.2373 28.678 23.7288 18.9322 23.7288 11.8644C23.7288 5.30508 18.4237 0 11.8644 0ZM11.8644 16.1017C9.52542 16.1017 7.62712 14.2034 7.62712 11.8644C7.62712 9.52542 9.52542 7.62712 11.8644 7.62712C14.2034 7.62712 16.1017 9.52542 16.1017 11.8644C16.1017 14.2034 14.2034 16.1017 11.8644 16.1017Z" fill="#E94E50"/>
</svg>
